<!-- icon666.com - MILLIONS vector ICONS FREE --><svg id="Layer_21" enable-background="new 0 0 512 512" viewBox="0 0 512 512" xmlns="http://www.w3.org/2000/svg" xmlns:xlink="http://www.w3.org/1999/xlink"><linearGradient id="SVGID_1_" gradientUnits="userSpaceOnUse" x1="11.826" x2="344.466" y1="89.679" y2="422.32"><stop offset="0" stop-color="#fa3e9f"></stop><stop offset="1" stop-color="#6540a7"></stop></linearGradient><path d="m105.149 512c-6.905 0-11.113-7.618-7.431-13.462l152.78-242.538-152.78-242.538c-3.68-5.841.521-13.462 7.431-13.462h145.995c3.034 0 5.812 1.533 7.431 4.101l155.728 247.218c1.79 2.843 1.79 6.518 0 9.361l-155.727 247.219c-1.619 2.568-4.397 4.101-7.431 4.101zm163.159-260.681c1.79 2.843 1.79 6.518 0 9.361l-147.25 233.756h125.239l150.196-238.436-150.195-238.436h-125.239z" fill="url(#SVGID_1_)"></path></svg>